<?xml version="1.0" standalone="no"?>
<!DOCTYPE svg PUBLIC "-//W3C//DTD SVG 20010904//EN"
 "http://www.w3.org/TR/2001/REC-SVG-20010904/DTD/svg10.dtd">
<svg version="1.0" xmlns="http://www.w3.org/2000/svg"
 width="569.000000pt" height="569.000000pt" viewBox="0 0 569.000000 569.000000"
 preserveAspectRatio="xMidYMid meet">
<metadata>
Created by potrace 1.14, written by Peter Selinger 2001-2017
</metadata>
<g transform="translate(0.000000,569.000000) scale(0.100000,-0.100000)"
fill="#000000" stroke="none">
<path d="M1954 5369 c-108 -19 -196 -90 -296 -239 -82 -123 -217 -322 -234
-345 -17 -24 -127 -184 -460 -672 -138 -203 -260 -386 -272 -408 -45 -90 -66
-185 -67 -300 0 -124 6 -166 33 -246 29 -82 42 -104 194 -331 76 -114 138
-211 138 -216 0 -4 -22 -39 -48 -77 -26 -39 -107 -155 -179 -260 -71 -104
-158 -230 -192 -280 -34 -49 -87 -126 -117 -170 -30 -44 -106 -154 -169 -245
-63 -91 -151 -219 -197 -285 l-82 -120 0 -280 c1 -265 2 -283 23 -337 34 -88
97 -158 183 -204 l73 -39 1350 -2 c1311 -2 1352 -1 1425 18 85 22 179 64 243
108 82 56 148 134 264 309 63 97 153 232 198 301 l83 126 921 -1 921 0 0 655
c-1 634 -2 658 -21 716 -16 45 -91 159 -300 455 -153 217 -282 400 -287 405
-5 6 -25 35 -46 65 -108 157 -246 257 -421 306 -49 13 -116 17 -363 18 l-302
3 -44 64 c-24 35 -260 390 -525 789 l-481 725 -452 0 c-249 1 -471 -2 -494 -6z
m792 -1280 c99 -154 178 -283 177 -287 -2 -3 -174 -6 -382 -6 -250 -1 -377 2
-373 9 11 20 314 461 329 480 5 6 19 27 32 48 12 20 26 37 31 37 4 0 88 -126
186 -281z m1064 -1224 c0 -10 -102 -162 -285 -425 -49 -72 -115 -166 -145
-211 -76 -111 -205 -298 -230 -334 -12 -16 -82 -117 -156 -224 -73 -107 -138
-199 -143 -204 -6 -6 -83 102 -204 284 -106 162 -316 477 -465 702 -150 224
-272 411 -272 415 0 4 428 7 950 7 626 0 950 -3 950 -10z m-2165 -1232 c50
-75 95 -146 102 -158 l12 -21 -215 0 c-118 1 -215 5 -215 9 -2 10 213 306 221
306 3 0 46 -61 95 -136z m2651 -35 c43 -73 76 -135 74 -138 -8 -8 -330 -6
-330 2 0 8 171 268 176 268 1 0 37 -60 80 -132z"/>
</g>
</svg>
